<svg width="16" height="16" viewBox="0 0 16 16" fill="none" xmlns="http://www.w3.org/2000/svg">
<path d="M7.85002 3.01516C8.69701 3.0822 9.51295 3.36397 10.2208 3.83387C10.9287 4.30377 11.5051 4.94631 11.8958 5.70083C12.2864 6.45535 12.4783 7.29696 12.4534 8.14624C12.4284 8.99551 12.1875 9.82443 11.7533 10.5547C11.3191 11.2851 10.706 11.8927 9.97179 12.3203C9.23758 12.7479 8.40652 12.9813 7.55706 12.9985C6.70759 13.0158 5.86774 12.8163 5.11678 12.4189C4.36582 12.0215 3.72851 11.4392 3.26502 10.7272C4.66802 10.3472 6.58102 9.42516 7.42502 7.17616C7.97702 5.70216 8.00902 4.23716 7.85002 3.01516ZM13.456 8.00016C13.456 7.19458 13.2937 6.39726 12.9789 5.65574C12.6641 4.91422 12.2032 4.24369 11.6236 3.68413C11.0441 3.12457 10.3578 2.68744 9.60573 2.39881C8.85363 2.11019 8.05111 1.97597 7.24602 2.00416C7.17396 2.00653 7.10327 2.02445 7.03879 2.0567C6.97431 2.08894 6.91756 2.13475 6.87245 2.19099C6.82733 2.24722 6.7949 2.31254 6.7774 2.38248C6.75989 2.45241 6.75771 2.52531 6.77102 2.59616C7.00102 3.81016 7.05102 5.32416 6.48802 6.82416C5.68802 8.95816 3.68602 9.66417 2.41102 9.89516C2.33512 9.90889 2.26342 9.93999 2.20154 9.98603C2.13965 10.0321 2.08926 10.0918 2.0543 10.1606C2.01934 10.2293 2.00077 10.3052 2.00002 10.3824C1.99928 10.4595 2.01639 10.5357 2.05002 10.6052C2.63978 11.83 3.62803 12.8183 4.85289 13.4082C6.07775 13.998 7.46661 14.1543 8.79195 13.8516C10.1173 13.5489 11.3006 12.8051 12.1479 11.7421C12.9953 10.679 13.4565 9.35963 13.456 8.00016Z" fill="white"/>
</svg>
